Patient4_TMGait_0pt7_02_right_35_GRF.mot
version=1
nRows=71
nColumns=19
inDegrees=no
endheader
time	F1x	F1y	F1z	M1x	M1y	M1z	F2x	F2y	F2z	M2x	M2y	M2z	EC1x	EC1y	EC1z	EC2x	EC2y	EC2z
39.5	-17.7742	789.2502	91.4819	-258.3247	-101.6552	843.884	-26.5525	36.5092	3.235	8.0011	0.79715	63.6128	-0.0592	0.0182	-0.0073	-0.0462	0.0165	0.9585
39.5114	-11.7476	788.7576	87.0063	-257.293	-94.7745	839.718	-18.1293	26.2269	2.2337	5.9287	0.58277	44.8872	-0.0592	0.0182	-0.0073	-0.0462	0.0165	0.9585
39.5227	-6.5194	785.94	83.1769	-255.4903	-88.6451	832.8979	-11.1293	17.6256	1.3931	4.2021	0.41397	29.2729	-0.0592	0.0182	-0.0073	-0.0462	0.0165	0.9585
39.5341	-2.2763	780.5724	80.0272	-252.8841	-83.4166	823.2987	-5.8064	11.0986	0.75433	2.9001	0.27482	17.4503	-0.0592	0.0182	-0.0073	-0.0462	0.0165	0.9585
39.5454	1.0025	772.8137	77.6091	-249.5457	-79.1658	811.1551	-2.2104	6.6806	0.31138	2.0306	0.18817	9.4548	-0.0592	0.0182	-0.0073	-0.0462	0.0165	0.9585
39.5568	3.5381	763.0299	75.7225	-245.617	-75.6672	796.8695	0.027208	3.97	0.026591	1.5082	0.13365	4.5487	-0.0592	0.0182	-0.0073	-0.0462	0.0165	0.9585
39.5681	5.5669	751.8095	74.3318	-241.2912	-72.8257	781.0909	1.1246	2.5633	-0.14969	1.2445	0.14342	2.0493	-0.0592	0.0182	-0.0073	-0.0462	0.0165	0.9585
39.5795	7.3296	739.792	73.2388	-236.7832	-70.3934	764.4431	1.5332	1.9336	-0.26211	1.1201	0.19104	1.018	-0.0592	0.0182	-0.0073	-0.0462	0.0165	0.9585
39.5909	9.02	727.7039	72.4131	-232.3203	-68.2872	747.6782	1.4192	1.7065	-0.34477	1.0413	0.30064	0.8324	-0.0592	0.0182	-0.0073	-0.0462	0.0165	0.9585
39.6022	10.8536	716.2461	71.768	-228.1245	-66.3709	731.4667	1.1223	1.4571	-0.42354	0.89882	0.44054	0.75833	-0.0592	0.0182	-0.0073	-0.0462	0.0165	0.9585
39.6136	12.9517	706.0812	71.2944	-224.3971	-64.5915	716.4656	0.69041	0.94669	-0.50989	0.62027	0.62115	0.44745	-0.0592	0.0182	-0.0073	-0.0462	0.0165	0.9585
39.6249	15.5054	697.8507	70.9957	-221.3307	-62.8922	703.2979	0.34177	-0.11914	-0.59988	0.12285	0.79228	-0.57464	-0.0592	0.0182	-0.0073	-0.0462	0.0165	0.9585
39.6363	18.6142	692.0796	70.8574	-219.0795	-61.2155	692.4588	0.039076	-1.8017	-0.6819	-0.61474	0.94389	-2.3799	-0.0592	0.0182	-0.0073	-0.0462	0.0165	0.9585
39.6476	22.3864	689.193	70.9303	-217.7608	-59.5705	684.3279	-0.056355	-4.1717	-0.7279	-1.5996	0.99561	-5.1103	-0.0592	0.0182	-0.0073	-0.0462	0.0165	0.9585
39.659	26.8894	689.4463	71.2108	-217.438	-57.9194	679.1186	-0.0082554	-6.9842	-0.69119	-2.7371	0.89047	-8.4189	-0.0592	0.0182	-0.0073	-0.0462	0.0165	0.9585
39.6704	32.1027	692.9046	71.77	-218.1141	-56.319	676.8471	0.3179	-9.8069	-0.51921	-3.8429	0.52114	-11.8204	-0.0592	0.0182	-0.0073	-0.0462	0.0165	0.9585
39.6817	37.9728	699.3877	72.6286	-219.7179	-54.7923	677.3325	0.85301	-11.7262	-0.12843	-4.5621	-0.19903	-14.1636	-0.0592	0.0182	-0.0073	-0.0462	0.0165	0.9585
39.6931	44.3626	708.3861	73.8044	-222.0857	-53.3875	680.1122	1.6963	-11.427	0.56629	-4.3682	-1.395	-13.9036	-0.0592	0.0182	-0.0073	-0.0462	0.0165	0.9585
39.7044	51.0869	719.0412	75.2356	-224.9573	-52.0999	684.4081	2.7292	-6.9695	1.6558	-2.5054	-3.1333	-8.6538	-0.0592	0.0182	-0.0073	-0.0462	0.0165	0.9585
39.7158	57.9184	730.1146	76.753	-227.9658	-50.8392	689.1285	3.9065	4.0146	3.1952	1.9648	-5.4373	4.426	-0.0592	0.0182	-0.0073	-0.0462	0.0165	0.9585
39.7271	64.6146	740.0536	78.1324	-230.6528	-49.4828	692.8939	4.9338	24.3353	5.1675	10.1299	-8.1592	28.796	-0.0592	0.0182	-0.0073	-0.0462	0.0165	0.9585
39.7385	70.8645	746.9635	79.0896	-232.4567	-47.8764	694.0693	5.4768	56.618	7.4294	23.011	-10.962	67.6523	-0.0592	0.0182	-0.0073	-0.0462	0.0165	0.9585
39.7499	76.411	748.6956	79.3268	-232.7341	-45.8584	690.801	4.9158	102.7629	9.6254	41.3026	-13.1489	123.3813	-0.0592	0.0182	-0.0073	-0.0462	0.0165	0.9585
39.7612	80.8784	742.9583	78.536	-230.7923	-43.2869	681.1318	2.481	162.5603	11.1274	64.8562	-13.6283	195.7886	-0.0592	0.0182	-0.0073	-0.0462	0.0165	0.9585
39.7726	83.9617	727.5386	76.4275	-225.9581	-40.0339	663.1712	-3.0512	232.4391	11.018	92.1547	-10.8249	280.6709	-0.0592	0.0182	-0.0073	-0.0462	0.0165	0.9585
39.7839	85.2357	700.6195	72.8183	-217.669	-36.0973	635.4268	-12.4904	304.2151	8.2053	119.8933	-3.1871	368.1966	-0.0592	0.0182	-0.0073	-0.0462	0.0165	0.9585
39.7953	84.3936	661.1674	67.6884	-205.5953	-31.5948	597.0283	-24.6545	368.4042	1.7081	144.336	9.7571	446.7971	-0.0592	0.0182	-0.0073	-0.0462	0.0165	0.9585
39.8066	81.192	609.4757	61.2769	-189.7863	-26.8338	548.3325	-37.6665	421.5419	-7.6213	164.1232	26.2623	512.0032	-0.0592	0.0182	-0.0073	-0.0462	0.0165	0.9585
39.818	75.6536	547.1509	54.0348	-170.6853	-22.2019	490.7734	-50.3367	465.733	-18.6134	180.1205	44.4965	566.0752	-0.0592	0.0182	-0.0073	-0.0462	0.0165	0.9585
39.8294	68.0306	476.854	46.565	-149.0569	-18.1273	426.7242	-61.4607	504.8096	-30.2297	193.9122	62.7553	613.3561	-0.0592	0.0182	-0.0073	-0.0462	0.0165	0.9585
39.8407	58.7672	402.0005	39.2569	-125.9245	-14.7803	359.1549	-70.4032	541.65	-41.1643	206.7476	79.2994	657.1425	-0.0592	0.0182	-0.0073	-0.0462	0.0165	0.9585
39.8521	48.3599	326.5203	32.3669	-102.4925	-12.2065	291.4879	-76.8052	577.3592	-50.9244	219.1619	93.3375	698.6751	-0.0592	0.0182	-0.0073	-0.0462	0.0165	0.9585
39.8634	37.5259	254.394	26.0184	-80.0095	-10.2683	227.1464	-80.4988	611.8844	-58.9065	231.2141	104.1524	737.7929	-0.0592	0.0182	-0.0073	-0.0462	0.0165	0.9585
39.8748	27.1205	189.21	20.3122	-59.6132	-8.7644	169.2006	-81.6388	644.4035	-65.3826	242.6143	112.0661	773.5767	-0.0592	0.0182	-0.0073	-0.0462	0.0165	0.9585
39.8861	17.9927	133.4322	15.355	-42.1041	-7.4939	119.696	-80.4299	673.8156	-70.4563	252.9417	117.3193	804.7726	-0.0592	0.0182	-0.0073	-0.0462	0.0165	0.9585
39.8975	10.6824	88.1882	11.1418	-27.8678	-6.2666	79.5493	-77.3371	698.8184	-74.5919	261.6743	120.6011	830.0368	-0.0592	0.0182	-0.0073	-0.0462	0.0165	0.9585
39.9089	5.2917	53.4098	7.6714	-16.91	-5.0403	48.6384	-72.9343	718.2929	-77.9393	268.385	122.329	848.2507	-0.0592	0.0182	-0.0073	-0.0462	0.0165	0.9585
39.9202	1.646	28.2183	4.8789	-8.9699	-3.8146	26.1914	-67.7631	731.9568	-80.5562	272.96	122.8122	859.2772	-0.0592	0.0182	-0.0073	-0.0462	0.0165	0.9585
39.9316	-0.54612	11.329	2.7446	-3.6458	-2.6699	11.0823	-62.2576	740.2713	-82.4535	275.596	122.2552	863.8137	-0.0592	0.0182	-0.0073	-0.0462	0.0165	0.9585
39.9429	-1.6195	1.1654	1.1975	-0.44388	-1.6608	1.9408	-56.6774	744.2231	-83.532	276.6832	120.7023	863.123	-0.0592	0.0182	-0.0073	-0.0462	0.0165	0.9585
39.9543	-1.9408	-3.9667	0.22834	1.1716	-0.90882	-2.7129	-51.2424	744.835	-83.9134	276.6236	118.3835	858.488	-0.0592	0.0182	-0.0073	-0.0462	0.0165	0.9585
39.9656	-1.8007	-5.6813	-0.31011	1.7081	-0.3876	-4.3119	-46.0791	743.0768	-83.5705	275.7961	115.3491	851.0813	-0.0592	0.0182	-0.0073	-0.0462	0.0165	0.9585
39.977	-1.4412	-5.3498	-0.51975	1.5986	-0.085856	-4.0849	-41.2321	739.9102	-82.7327	274.5471	111.8737	842.0536	-0.0592	0.0182	-0.0073	-0.0462	0.0165	0.9585
39.9884	-1.0059	-3.9594	-0.52307	1.1556	0.057821	-2.9148	-36.7761	736.1497	-81.4931	273.1732	108.105	832.3404	-0.0592	0.0182	-0.0073	-0.0462	0.0165	0.9585
39.9997	-0.59588	-2.2224	-0.42038	0.60451	0.10112	-1.4239	-32.6912	732.5818	-80.138	271.9334	104.3547	822.8553	-0.0592	0.0182	-0.0073	-0.0462	0.0165	0.9585
40.0111	-0.26	-0.52961	-0.26329	0.070902	0.07487	0.041258	-28.9885	729.8113	-78.8256	271.0347	100.8054	814.2653	-0.0592	0.0182	-0.0073	-0.0462	0.0165	0.9585
40.0224	-0.0045837	0.91787	-0.11267	-0.3853	0.030872	1.3117	-25.69	728.392	-77.6822	270.6632	97.6046	807.1773	-0.0592	0.0182	-0.0073	-0.0462	0.0165	0.9585
40.0338	0.16259	2.0425	0.029529	-0.73985	-0.031195	2.3135	-22.7907	728.7873	-76.776	270.9784	94.8226	802.0808	-0.0592	0.0182	-0.0073	-0.0462	0.0165	0.9585
40.0451	0.26777	2.8796	0.12694	-1.002	-0.074453	3.0705	-20.3427	731.2935	-76.0519	272.0864	92.4229	799.2806	-0.0592	0.0182	-0.0073	-0.0462	0.0165	0.9585
40.0565	0.31871	3.4467	0.20203	-1.1781	-0.11413	3.607	-18.3349	736.0126	-75.5137	274.014	90.4046	798.8663	-0.0592	0.0182	-0.0073	-0.0462	0.0165	0.9585
40.0679	0.33836	3.8374	0.24049	-1.2979	-0.13579	4.0032	-16.7681	742.6806	-75.0667	276.6579	88.6698	800.5485	-0.0592	0.0182	-0.0073	-0.0462	0.0165	0.9585
40.0792	0.33571	4.0892	0.26522	-1.3743	-0.15601	4.2993	-15.56	750.6726	-74.7291	279.7746	87.2004	803.6466	-0.0592	0.0182	-0.0073	-0.0462	0.0165	0.9585
40.0906	0.32644	4.2664	0.2732	-1.4264	-0.17001	4.542	-14.6226	759.1414	-74.4368	283.0361	85.8899	807.2539	-0.0592	0.0182	-0.0073	-0.0462	0.0165	0.9585
40.1019	0.29858	4.3835	0.28293	-1.4578	-0.19772	4.7274	-13.8244	767.0476	-74.1701	286.0519	84.6664	810.2786	-0.0592	0.0182	-0.0073	-0.0462	0.0165	0.9585
40.1133	0.26209	4.4084	0.29412	-1.4586	-0.24061	4.8045	-13.0457	773.4502	-73.8564	288.468	83.4072	811.7445	-0.0592	0.0182	-0.0073	-0.0462	0.0165	0.9585
40.1246	0.19271	4.2943	0.32066	-1.4129	-0.31668	4.7008	-12.1382	777.5426	-73.4292	289.9881	81.9924	810.8149	-0.0592	0.0182	-0.0073	-0.0462	0.0165	0.9585
40.136	0.09679	3.9583	0.36197	-1.2918	-0.42208	4.3109	-10.9828	778.7798	-72.8428	290.4152	80.3286	806.9482	-0.0592	0.0182	-0.0073	-0.0462	0.0165	0.9585
40.1474	-0.030363	3.3156	0.41894	-1.0621	-0.55228	3.5376	-9.4248	776.9381	-72.0485	289.6698	78.328	799.906	-0.0592	0.0182	-0.0073	-0.0462	0.0165	0.9585
40.1587	-0.17834	2.2551	0.48323	-0.6849	-0.68989	2.2563	-7.4063	772.0621	-71.0674	287.7742	75.993	789.7465	-0.0592	0.0182	-0.0073	-0.0462	0.0165	0.9585
40.1701	-0.33074	0.68411	0.54625	-0.12694	-0.81809	0.37693	-4.824	764.537	-69.9013	284.8734	73.3036	776.8513	-0.0592	0.0182	-0.0073	-0.0462	0.0165	0.9585
40.1814	-0.46989	-1.4362	0.58552	0.62423	-0.90417	-2.1359	-1.6666	755.0199	-68.6298	281.2137	70.3376	761.8841	-0.0592	0.0182	-0.0073	-0.0462	0.0165	0.9585
40.1928	-0.55798	-4.0275	0.56168	1.5409	-0.89407	-5.1776	2.0829	744.4481	-67.3058	277.1489	67.1452	745.7711	-0.0592	0.0182	-0.0073	-0.0462	0.0165	0.9585
40.2041	-0.53119	-6.838	0.42953	2.5295	-0.71044	-8.4566	6.4083	733.9514	-66.0509	273.0983	63.8507	729.6455	-0.0592	0.0182	-0.0073	-0.0462	0.0165	0.9585
40.2155	-0.29736	-9.3351	0.13615	3.394	-0.26583	-11.3644	11.2474	724.5875	-64.9787	269.4598	60.5716	714.5355	-0.0592	0.0182	-0.0073	-0.0462	0.0165	0.9585
40.2269	0.24987	-10.6031	-0.3822	3.8024	0.5484	-12.8457	16.5393	717.2453	-64.2195	266.5569	57.4447	701.3349	-0.0592	0.0182	-0.0073	-0.0462	0.0165	0.9585
40.2382	1.2263	-9.2489	-1.1834	3.256	1.8376	-11.2792	22.1536	712.3119	-63.8812	264.5367	54.5979	690.4481	-0.0592	0.0182	-0.0073	-0.0462	0.0165	0.9585
40.2496	2.7239	-3.3832	-2.2975	1.0799	3.6767	-4.4757	27.9002	709.653	-63.9975	263.3486	52.1199	681.8073	-0.0592	0.0182	-0.0073	-0.0462	0.0165	0.9585
40.2609	4.8108	9.3079	-3.7165	-3.5478	6.0791	10.2575	33.5288	708.4866	-64.5335	262.7091	50.0654	674.7549	-0.0592	0.0182	-0.0073	-0.0462	0.0165	0.9585
40.2723	7.4382	31.364	-5.3197	-11.5176	8.8933	35.873	38.7267	707.4558	-65.3231	262.1265	48.3906	668.1472	-0.0592	0.0182	-0.0073	-0.0462	0.0165	0.9585
40.2836	10.3878	65.0267	-6.8808	-23.6035	11.763	74.9974	43.1465	704.7452	-66.1396	260.9376	47.0125	660.439	-0.0592	0.0182	-0.0073	-0.0462	0.0165	0.9585
40.295	13.1669	111.4329	-7.9303	-40.1696	13.9584	128.9759	46.4234	698.2335	-66.6571	258.3692	45.7684	649.8233	-0.0592	0.0182	-0.0073	-0.0462	0.0165	0.9585
